<svg width="30" height="30" viewBox="0 0 30 30" fill="none" xmlns="http://www.w3.org/2000/svg">
<path d="M15 2.75C19 2.75 19.5 2.75 21.125 2.875C25.25 3 27.125 5 27.25 9C27.375 10.625 27.375 11 27.375 15C27.375 19 27.375 19.5 27.25 21C27.125 25 25.125 27 21.125 27.125C19.5 27.25 19.125 27.25 15 27.25C11 27.25 10.5 27.25 9 27.125C4.875 27 3 25 2.875 21C2.75 19.375 2.75 19 2.75 15C2.75 11 2.75 10.5 2.875 9C3 5 5 3 9 2.875C10.5 2.75 11 2.75 15 2.75ZM15 0C10.875 0 10.375 0 8.875 0.125C3.375 0.375 0.375 3.375 0.125 8.875C0 10.375 0 10.875 0 15C0 19.125 0 19.625 0.125 21.125C0.375 26.625 3.375 29.625 8.875 29.875C10.375 30 10.875 30 15 30C19.125 30 19.625 30 21.125 29.875C26.625 29.625 29.625 26.625 29.875 21.125C30 19.625 30 19.125 30 15C30 10.875 30 10.375 29.875 8.875C29.625 3.375 26.625 0.375 21.125 0.125C19.625 0 19.125 0 15 0ZM15 7.25C10.75 7.25 7.25 10.75 7.25 15C7.25 19.25 10.75 22.75 15 22.75C19.25 22.75 22.75 19.25 22.75 15C22.75 10.75 19.25 7.25 15 7.25ZM15 20C12.25 20 10 17.75 10 15C10 12.25 12.25 10 15 10C17.75 10 20 12.25 20 15C20 17.75 17.75 20 15 20ZM23 5.25C22 5.25 21.25 6 21.25 7C21.25 8 22 8.75 23 8.75C24 8.75 24.75 8 24.75 7C24.75 6 24 5.25 23 5.25Z" fill="white"/>
</svg>
