<svg width="30" height="42" viewBox="0 0 30 42" fill="none" xmlns="http://www.w3.org/2000/svg">
<path d="M8.5 16.48V9C8.5 6.24 10.74 4 13.5 4C16.26 4 18.5 6.24 18.5 9V16.48C20.92 14.86 22.5 12.12 22.5 9C22.5 4.02 18.48 0 13.5 0C8.52 0 4.5 4.02 4.5 9C4.5 12.12 6.08 14.86 8.5 16.48ZM28.18 25.74L19.1 21.22C18.76 21.08 18.4 21 18.02 21H16.5V9C16.5 7.34 15.16 6 13.5 6C11.84 6 10.5 7.34 10.5 9V30.48L3.64 29.04C3.48 29.02 3.34 28.98 3.16 28.98C2.54 28.98 1.98 29.24 1.58 29.64L0 31.24L9.88 41.12C10.42 41.66 11.18 42 12 42H25.58C27.08 42 28.24 40.9 28.46 39.44L29.96 28.9C29.98 28.76 30 28.62 30 28.5C30 27.26 29.24 26.18 28.18 25.74Z" fill="#B76B79"/>
</svg>
